<svg width="36" height="36" viewBox="0 0 36 36" fill="none" xmlns="http://www.w3.org/2000/svg">
<path d="M31.0852 9.73499C31.2138 9.76635 31.3475 9.77185 31.4783 9.75116C31.6091 9.73047 31.7345 9.684 31.8472 9.61446C31.9599 9.54491 32.0576 9.45368 32.1348 9.34604C32.2119 9.23841 32.2669 9.11652 32.2966 8.98746C32.3263 8.85839 32.33 8.72472 32.3076 8.5942C32.2852 8.46368 32.2371 8.33891 32.166 8.22713C32.095 8.11536 32.0025 8.0188 31.8939 7.94307C31.7852 7.86735 31.6626 7.81395 31.5332 7.78599L24.9172 6.26599C24.7875 6.2315 24.6522 6.22346 24.5194 6.24235C24.3866 6.26124 24.2589 6.30666 24.144 6.37592C24.029 6.44518 23.9292 6.53686 23.8505 6.6455C23.7717 6.75413 23.7157 6.8775 23.6856 7.00826C23.6555 7.13902 23.6521 7.2745 23.6755 7.40662C23.6988 7.53874 23.7486 7.66481 23.8217 7.77731C23.8948 7.88981 23.9898 7.98645 24.101 8.06147C24.2123 8.13649 24.3375 8.18836 24.4692 8.21399L31.0852 9.73499Z" fill="#CCCCCC"/>
<path fill-rule="evenodd" clip-rule="evenodd" d="M28.001 16C30.1228 16 32.1576 15.1571 33.6579 13.6569C35.1582 12.1566 36.001 10.1217 36.001 8C36.001 5.87827 35.1582 3.84344 33.6579 2.34315C32.1576 0.842854 30.1228 0 28.001 0C25.8793 0 23.8445 0.842854 22.3442 2.34315C20.8439 3.84344 20.001 5.87827 20.001 8C20.001 10.1217 20.8439 12.1566 22.3442 13.6569C23.8445 15.1571 25.8793 16 28.001 16ZM28.001 14C28.789 14 29.5692 13.8448 30.2971 13.5433C31.0251 13.2417 31.6865 12.7998 32.2437 12.2426C32.8008 11.6855 33.2428 11.0241 33.5443 10.2961C33.8458 9.56815 34.001 8.78793 34.001 8C34.001 7.21207 33.8458 6.43185 33.5443 5.7039C33.2428 4.97595 32.8008 4.31451 32.2437 3.75736C31.6865 3.20021 31.0251 2.75825 30.2971 2.45672C29.5692 2.15519 28.789 2 28.001 2C26.4097 2 24.8836 2.63214 23.7584 3.75736C22.6332 4.88258 22.001 6.4087 22.001 8C22.001 9.5913 22.6332 11.1174 23.7584 12.2426C24.8836 13.3679 26.4097 14 28.001 14ZM10.779 3.245C10.132 1.713 7.96603 1.559 7.09703 2.982L0.293029 14.115C-0.491971 15.399 0.385029 17.039 1.91603 17.148L13.782 17.994C15.312 18.104 16.426 16.606 15.842 15.224L10.779 3.245ZM8.81203 4.013L8.80303 4.025L2.01103 15.14L2.01303 15.142L2.02303 15.146C2.0345 15.1505 2.0467 15.1529 2.05903 15.153L13.926 15.999H13.964C13.9745 15.9956 13.9843 15.9906 13.993 15.984L8.93703 4.024L8.93303 4.014C8.91672 4.00431 8.89799 3.99945 8.87903 4C8.85794 3.9979 8.83665 4.00099 8.81703 4.009L8.81403 4.01L8.81203 4.013ZM29.386 30.36C30.8283 29.6875 31.9443 28.4697 32.4886 26.9744C33.033 25.4791 32.961 23.8287 32.2885 22.3865C31.6161 20.9443 30.3982 19.8282 28.9029 19.2839C27.4076 18.7396 25.7573 18.8115 24.315 19.484L13.439 24.554C11.9966 25.2265 10.8805 26.4444 10.3361 27.9398C9.79164 29.4352 9.86357 31.0856 10.536 32.528C11.2085 33.9704 12.4264 35.0866 13.9218 35.631C15.4172 36.1754 17.0677 36.1035 18.51 35.431L29.386 30.36ZM14.284 26.368C13.8027 26.5866 13.3695 26.8985 13.0095 27.2856C12.6495 27.6727 12.3698 28.1273 12.1865 28.6232C12.0032 29.119 11.9201 29.6463 11.9418 30.1745C11.9636 30.7027 12.0898 31.2213 12.3133 31.7004C12.5367 32.1795 12.8529 32.6096 13.2435 32.9657C13.6342 33.3219 14.0915 33.5971 14.5892 33.7754C15.0869 33.9537 15.6149 34.0316 16.1429 34.0046C16.6708 33.9776 17.1882 33.8462 17.665 33.618L22.131 31.535L18.751 24.285L14.284 26.368ZM23.944 30.69L20.563 23.44L25.16 21.296C25.6372 21.0652 26.1556 20.9315 26.6849 20.9027C27.2142 20.8739 27.744 20.9507 28.2434 21.1285C28.7428 21.3062 29.2019 21.5815 29.5939 21.9383C29.986 22.2951 30.3033 22.7262 30.5273 23.2066C30.7513 23.6871 30.8775 24.2073 30.8987 24.737C30.9199 25.2666 30.8356 25.7953 30.6507 26.2921C30.4658 26.7889 30.184 27.244 29.8216 27.6309C29.4593 28.0178 29.0236 28.3289 28.54 28.546L23.944 30.69Z" fill="#CCCCCC"/>
</svg>
