<svg width="32" height="32" viewBox="0 0 32 32" fill="none" xmlns="http://www.w3.org/2000/svg">
<path d="M19.8449 21.8048C19.8513 20.9247 20.1799 20.0774 20.7685 19.4231C21.3572 18.7688 22.1651 18.3528 23.0397 18.2537C24.5573 18.0836 26.0067 17.5301 27.2515 16.6453C28.4962 15.7605 29.4953 14.5735 30.1547 13.196C30.8142 11.8186 31.1123 10.296 31.0209 8.77155C30.9296 7.24712 30.4519 5.77099 29.6327 4.48212C29.2885 3.9551 28.8965 3.46087 28.4617 3.00569C26.7739 1.31786 24.4847 0.369649 22.0978 0.369649C19.7108 0.369649 17.4217 1.31786 15.7338 3.00569C14.2943 4.45762 13.392 6.35646 13.1755 8.38959C13.0733 9.2425 12.6694 10.0307 12.0368 10.6119C11.4043 11.1931 10.5848 11.529 9.72625 11.5588C7.97514 11.6076 6.26831 12.1201 4.78001 13.0441C3.29171 13.9681 2.07523 15.2704 1.25476 16.8182C0.434279 18.366 0.0391897 20.1038 0.109812 21.8541C0.180438 23.6045 0.714249 25.3048 1.65676 26.7814C2.04282 27.3897 2.49532 27.9532 3.00591 28.4615C4.37231 29.8073 6.10018 30.7272 7.97956 31.1095C9.85893 31.4918 11.8089 31.32 13.5924 30.6149C15.376 29.9098 16.9164 28.7019 18.0263 27.1379C19.1363 25.5739 19.7681 23.7211 19.8449 21.8048ZM25.9162 8.09685C26.1679 8.34859 26.3393 8.66932 26.4088 9.01848C26.4782 9.36765 26.4426 9.72957 26.3063 10.0585C26.1701 10.3874 25.9394 10.6685 25.6434 10.8663C25.3474 11.0641 24.9994 11.1696 24.6434 11.1696C24.2874 11.1696 23.9393 11.0641 23.6433 10.8663C23.3473 10.6685 23.1166 10.3874 22.9804 10.0585C22.8441 9.72957 22.8085 9.36765 22.878 9.01848C22.9474 8.66931 23.1188 8.34859 23.3706 8.09685C23.7081 7.75929 24.166 7.56964 24.6434 7.56964C25.1208 7.56964 25.5786 7.75929 25.9162 8.09685ZM6.82429 22.0976C6.57255 21.8458 6.40112 21.5251 6.33167 21.1759C6.26221 20.8268 6.29786 20.4648 6.4341 20.1359C6.57034 19.807 6.80105 19.5259 7.09706 19.3281C7.39306 19.1303 7.74107 19.0248 8.09708 19.0248C8.45309 19.0248 8.8011 19.1303 9.09711 19.3281C9.39311 19.5259 9.62382 19.807 9.76006 20.1359C9.8963 20.4648 9.93195 20.8268 9.86249 21.1759C9.79304 21.5251 9.6216 21.8458 9.36987 22.0976C9.03231 22.4351 8.57447 22.6248 8.09708 22.6248C7.61969 22.6248 7.16185 22.4351 6.82429 22.0976ZM11.9155 19.552C12.1672 19.3002 12.4879 19.1288 12.8371 19.0594C13.1862 18.9899 13.5482 19.0255 13.8771 19.1618C14.206 19.298 14.4871 19.5287 14.6849 19.8247C14.8827 20.1207 14.9882 20.4688 14.9882 20.8248C14.9882 21.1808 14.8827 21.5288 14.6849 21.8248C14.4871 22.1208 14.206 22.3515 13.8771 22.4877C13.5482 22.624 13.1862 22.6596 12.8371 22.5902C12.4879 22.5207 12.1672 22.3493 11.9155 22.0976C11.5779 21.76 11.3882 21.3022 11.3882 20.8248C11.3882 20.3474 11.5779 19.8895 11.9155 19.552ZM9.36987 27.1887C9.11814 26.937 8.9467 26.6163 8.87725 26.2671C8.8078 25.9179 8.84344 25.556 8.97968 25.2271C9.11592 24.8982 9.34663 24.6171 9.64264 24.4193C9.93865 24.2215 10.2867 24.1159 10.6427 24.1159C10.9987 24.1159 11.3467 24.2215 11.6427 24.4193C11.9387 24.6171 12.1694 24.8982 12.3056 25.2271C12.4419 25.556 12.4775 25.9179 12.4081 26.2671C12.3386 26.6163 12.1672 26.937 11.9155 27.1887C11.5779 27.5263 11.1201 27.7159 10.6427 27.7159C10.1653 27.7159 9.70744 27.5263 9.36987 27.1887Z" fill="#CCCCCC"/>
</svg>
