<svg width="25" height="25" viewBox="0 0 25 25" fill="none" xmlns="http://www.w3.org/2000/svg">
<path d="M21.25 20C21.9375 20 22.5 20.5625 22.5 21.25C22.5 21.9375 21.9375 22.5 21.25 22.5H3.75C3.0625 22.5 2.5 21.9375 2.5 21.25C2.5 20.5625 3.0625 20 3.75 20H21.25ZM21.25 17.5H3.75C1.6825 17.5 0 19.1825 0 21.25C0 23.3175 1.6825 25 3.75 25H21.25C23.3175 25 25 23.3175 25 21.25C25 19.1825 23.3175 17.5 21.25 17.5ZM21.25 11.25C21.9375 11.25 22.5 11.8125 22.5 12.5C22.5 13.1875 21.9375 13.75 21.25 13.75H3.75C3.0625 13.75 2.5 13.1875 2.5 12.5C2.5 11.8125 3.0625 11.25 3.75 11.25H21.25ZM21.25 8.75H3.75C1.6825 8.75 0 10.4325 0 12.5C0 14.5675 1.6825 16.25 3.75 16.25H21.25C23.3175 16.25 25 14.5675 25 12.5C25 10.4325 23.3175 8.75 21.25 8.75ZM21.25 2.5C21.9375 2.5 22.5 3.0625 22.5 3.75C22.5 4.4375 21.9375 5 21.25 5H3.75C3.0625 5 2.5 4.4375 2.5 3.75C2.5 3.0625 3.0625 2.5 3.75 2.5H21.25ZM21.25 0H3.75C1.6825 0 0 1.6825 0 3.75C0 5.8175 1.6825 7.5 3.75 7.5H21.25C23.3175 7.5 25 5.8175 25 3.75C25 1.6825 23.3175 0 21.25 0Z" fill="black" fill-opacity="0.25"/>
</svg>
