<svg width="36" height="37" viewBox="0 0 36 37" fill="none" xmlns="http://www.w3.org/2000/svg">
<path d="M12.2616 16.7601C12.0926 16.9277 11.9585 17.1271 11.8669 17.3469C11.7754 17.5666 11.7283 17.8023 11.7283 18.0403C11.7283 18.2784 11.7754 18.514 11.8669 18.7338C11.9585 18.9535 12.0926 19.1529 12.2616 19.3206C12.5995 19.6564 13.0565 19.8449 13.5329 19.8449C14.0092 19.8449 14.4663 19.6564 14.8041 19.3206C14.9731 19.1529 15.1073 18.9535 15.1988 18.7338C15.2903 18.514 15.3375 18.2784 15.3375 18.0403C15.3375 17.8023 15.2903 17.5666 15.1988 17.3469C15.1073 17.1271 14.9731 16.9277 14.8041 16.7601C14.4663 16.4242 14.0092 16.2357 13.5329 16.2357C13.0565 16.2357 12.5995 16.4242 12.2616 16.7601ZM16.7155 21.2319C16.3796 21.5698 16.1911 22.0268 16.1911 22.5031C16.1911 22.9795 16.3796 23.4365 16.7155 23.7744C16.8831 23.9434 17.0825 24.0775 17.3022 24.1691C17.522 24.2606 17.7577 24.3077 17.9957 24.3077C18.2337 24.3077 18.4694 24.2606 18.6891 24.1691C18.9089 24.0775 19.1083 23.9434 19.2759 23.7744C19.6118 23.4365 19.8003 22.9795 19.8003 22.5031C19.8003 22.0268 19.6118 21.5698 19.2759 21.2319C19.1083 21.0629 18.9089 20.9288 18.6891 20.8372C18.4694 20.7457 18.2337 20.6985 17.9957 20.6985C17.7577 20.6985 17.522 20.7457 17.3022 20.8372C17.0825 20.9288 16.8831 21.0629 16.7155 21.2319ZM32.9439 3.20032C30.9824 1.22266 28.3338 0.0777047 25.5494 0.00381169C22.7649 -0.0700813 20.0593 0.932782 17.9957 2.80362C15.9416 0.954626 13.2578 -0.038192 10.4949 0.0288682C7.73207 0.0959283 5.0996 1.21778 3.13765 3.16426C1.18847 5.12941 0.0665993 7.76689 0.00287104 10.534C-0.0608572 13.3012 0.938403 15.9875 2.79505 18.0403C1.40693 19.5922 0.496093 21.5116 0.171836 23.5683C-0.152421 25.625 0.12368 27.7316 0.967006 29.6353C1.81033 31.539 3.18506 33.1589 4.92622 34.3006C6.66737 35.4423 8.701 36.0574 10.7831 36.0719C13.4521 36.0748 16.0254 35.0776 17.9957 33.277C20.0508 35.1313 22.7384 36.1274 25.5056 36.0603C28.2727 35.9932 30.909 34.8681 32.8718 32.9164C34.8184 30.9489 35.937 28.3101 35.9974 25.543C36.0578 22.7759 35.0554 20.0909 33.1963 18.0403C35.0554 15.9898 36.0578 13.3048 35.9974 10.5376C35.937 7.77051 34.8184 5.13175 32.8718 3.16426L32.9439 3.20032ZM30.3113 5.72474C31.5653 7.0147 32.2919 8.72672 32.3486 10.5248C32.4053 12.323 31.788 14.0774 30.6178 15.4438L20.5922 5.41821C21.9706 4.27453 23.7196 3.67438 25.5098 3.73085C27.3 3.78731 29.0077 4.49647 30.3113 5.72474ZM5.68011 30.3559C4.42613 29.066 3.69949 27.3539 3.64278 25.5558C3.58607 23.7577 4.20338 22.0033 5.37357 20.6369L15.4713 30.7346C14.0776 31.885 12.3093 32.4823 10.5035 32.4124C8.69767 32.3426 6.98074 31.6106 5.68011 30.3559ZM30.3113 30.3559C28.9422 31.6653 27.1208 32.3961 25.2264 32.3961C23.3319 32.3961 21.5105 31.6653 20.1415 30.3559L5.71617 15.9306C4.37281 14.5793 3.61879 12.7512 3.61879 10.8457C3.61879 8.94024 4.37281 7.11218 5.71617 5.76081C7.06755 4.41745 8.89561 3.66342 10.8011 3.66342C12.7066 3.66342 14.5346 4.41745 15.886 5.76081L30.3113 20.1861C31.6546 21.5375 32.4087 23.3655 32.4087 25.271C32.4087 27.1765 31.6546 29.0045 30.3113 30.3559ZM21.1873 16.7601C21.0183 16.9277 20.8841 17.1271 20.7926 17.3469C20.701 17.5666 20.6539 17.8023 20.6539 18.0403C20.6539 18.2784 20.701 18.514 20.7926 18.7338C20.8841 18.9535 21.0183 19.1529 21.1873 19.3206C21.5251 19.6564 21.9821 19.8449 22.4585 19.8449C22.9349 19.8449 23.3919 19.6564 23.7297 19.3206C23.8988 19.1529 24.0329 18.9535 24.1244 18.7338C24.216 18.514 24.2631 18.2784 24.2631 18.0403C24.2631 17.8023 24.216 17.5666 24.1244 17.3469C24.0329 17.1271 23.8988 16.9277 23.7297 16.7601C23.3919 16.4242 22.9349 16.2357 22.4585 16.2357C21.9821 16.2357 21.5251 16.4242 21.1873 16.7601ZM16.7155 12.3063C16.3796 12.6441 16.1911 13.1011 16.1911 13.5775C16.1911 14.0539 16.3796 14.5109 16.7155 14.8487C16.8831 15.0177 17.0825 15.1519 17.3022 15.2434C17.522 15.335 17.7577 15.3821 17.9957 15.3821C18.2337 15.3821 18.4694 15.335 18.6891 15.2434C18.9089 15.1519 19.1083 15.0177 19.2759 14.8487C19.6118 14.5109 19.8003 14.0539 19.8003 13.5775C19.8003 13.1011 19.6118 12.6441 19.2759 12.3063C19.1083 12.1373 18.9089 12.0031 18.6891 11.9116C18.4694 11.82 18.2337 11.7729 17.9957 11.7729C17.7577 11.7729 17.522 11.82 17.3022 11.9116C17.0825 12.0031 16.8831 12.1373 16.7155 12.3063Z" fill="#CCCCCC"/>
</svg>
