<svg width="27" height="27" viewBox="0 0 27 27" fill="none" xmlns="http://www.w3.org/2000/svg">
<path d="M20.4463 9.33414C20.4463 8.59736 20.1536 7.89075 19.6327 7.36977C19.1117 6.84878 18.4051 6.5561 17.6683 6.5561M17.6683 17.6683C19.4213 17.6678 21.1295 17.1145 22.5499 16.0872C23.9703 15.0599 25.0307 13.6109 25.5801 11.9462C26.1295 10.2816 26.14 8.48606 25.6102 6.81506C25.0803 5.14407 24.0371 3.6827 22.6288 2.63881C21.2205 1.59493 19.5189 1.02168 17.766 1.0006C16.0132 0.979529 14.2983 1.5117 12.8653 2.52143C11.4324 3.53116 10.3543 4.96703 9.7844 6.6248C9.21452 8.28257 9.18188 10.0778 9.69112 11.7552L9.33414 12.1122L1.40698 20.0394C1.14647 20.2998 1.00008 20.653 1 21.0214V24.6134C1 24.9818 1.14634 25.3351 1.40684 25.5956C1.66733 25.8561 2.02063 26.0024 2.38902 26.0024H5.16707C5.53546 26.0024 5.88877 25.8561 6.14926 25.5956C6.40975 25.3351 6.5561 24.9818 6.5561 24.6134C6.5561 24.245 6.70244 23.8917 6.96293 23.6312C7.22342 23.3707 7.57673 23.2244 7.94512 23.2244C8.31351 23.2244 8.66681 23.078 8.92731 22.8175C9.1878 22.5571 9.33414 22.2038 9.33414 21.8354C9.33414 21.467 9.48049 21.1137 9.74098 20.8532C10.0015 20.5927 10.3548 20.4463 10.7232 20.4463H11.5371C11.9055 20.4463 12.2587 20.2999 12.5192 20.0394L14.8902 17.6683L15.2472 17.3113C16.0323 17.5488 16.8481 17.6691 17.6683 17.6683Z" stroke="black" stroke-opacity="0.25" stroke-width="2" stroke-linecap="round" stroke-linejoin="round"/>
</svg>
