<svg width="26" height="31" viewBox="0 0 26 31" fill="none" xmlns="http://www.w3.org/2000/svg">
<path fill-rule="evenodd" clip-rule="evenodd" d="M15.7575 5.09755C15.7575 2.28343 18.0516 1.85771e-05 20.878 1.85771e-05C21.5491 -0.0017912 22.2139 0.128647 22.8346 0.38388C23.4552 0.639114 24.0195 1.01414 24.4952 1.48753C24.9708 1.96092 25.3486 2.52339 25.6068 3.14282C25.865 3.76224 25.9986 4.42647 26 5.09755C26 7.91319 23.7059 10.1966 20.878 10.1966C20.1999 10.1971 19.5284 10.063 18.9025 9.80202C18.2766 9.54106 17.7088 9.15845 17.2319 8.67637L10.1431 13.5032C10.3401 14.4866 10.2433 15.5063 9.86471 16.4351L17.6372 21.5433C18.5529 20.7971 19.6983 20.3903 20.8795 20.3917C21.5506 20.3901 22.2154 20.5207 22.836 20.7761C23.4566 21.0315 24.0207 21.4067 24.4963 21.8803C24.9718 22.3538 25.3493 22.9164 25.6074 23.5359C25.8654 24.1554 25.9988 24.8196 26 25.4907C26 28.3048 23.7059 30.5883 20.878 30.5883C20.207 30.5899 19.5424 30.4593 18.9219 30.2039C18.3014 29.9486 17.7373 29.5736 17.2618 29.1002C16.7863 28.6268 16.4087 28.0644 16.1506 27.4451C15.8925 26.8258 15.7589 26.1617 15.7575 25.4907C15.7563 24.7759 15.907 24.069 16.1995 23.4168L8.48824 18.353C7.5541 19.1644 6.35785 19.6105 5.12047 19.6086C4.44939 19.6102 3.78457 19.4796 3.16399 19.2242C2.54342 18.9687 1.97926 18.5935 1.50374 18.12C1.02822 17.6465 0.65066 17.0839 0.392643 16.4644C0.134626 15.8449 0.00120361 15.1806 0 14.5095C0.00140426 13.8386 0.134975 13.1745 0.393081 12.5552C0.651188 11.9358 1.02877 11.3734 1.50427 10.9001C1.97978 10.4267 2.54387 10.0516 3.16435 9.79632C3.78482 9.541 4.44952 9.41041 5.12047 9.41202C6.74777 9.41202 8.19459 10.166 9.13212 11.3406L16.0038 6.66214C15.8399 6.15682 15.7568 5.62879 15.7575 5.09755Z" fill="#6433A2"/>
</svg>
