<svg width="25" height="27" viewBox="0 0 25 27" fill="none" xmlns="http://www.w3.org/2000/svg">
<path d="M1 16V11C1 6.28625 1 3.92875 2.465 2.465C3.93 1.00125 6.28625 1 11 1H13.5C18.2137 1 20.5712 1 22.035 2.465C22.8525 3.28125 23.2138 4.375 23.3725 6M23.5 11V16C23.5 20.7137 23.5 23.0712 22.035 24.535C20.57 25.9987 18.2137 26 13.5 26H11C6.28625 26 3.92875 26 2.465 24.535C1.6475 23.7187 1.28625 22.625 1.1275 21M7.25 16H13.5M7.25 11H8.5M17.25 11H12.25" stroke="black" stroke-opacity="0.25" stroke-width="1.5" stroke-linecap="round"/>
</svg>
