<svg width="25" height="25" viewBox="0 0 25 25" fill="none" xmlns="http://www.w3.org/2000/svg">
<path fill-rule="evenodd" clip-rule="evenodd" d="M2.80893 2.80893C2.85046 2.7675 2.89976 2.73466 2.95399 2.71229C3.00822 2.68993 3.06633 2.67847 3.125 2.67857H5.80357C6.15877 2.67857 6.49942 2.53747 6.75059 2.2863C7.00175 2.03514 7.14286 1.69449 7.14286 1.33929C7.14286 0.984085 7.00175 0.643432 6.75059 0.392268C6.49942 0.141103 6.15877 0 5.80357 0L3.125 0C2.2962 0 1.50134 0.32924 0.915291 0.915291C0.32924 1.50134 0 2.2962 0 3.125L0 5.80357C0 6.15877 0.141103 6.49942 0.392268 6.75059C0.643432 7.00175 0.984085 7.14286 1.33929 7.14286C1.69449 7.14286 2.03514 7.00175 2.2863 6.75059C2.53747 6.49942 2.67857 6.15877 2.67857 5.80357V3.125C2.67847 3.06633 2.68993 3.00822 2.71229 2.95399C2.73466 2.89976 2.7675 2.85046 2.80893 2.80893ZM25 19.1964C25 18.8412 24.8589 18.5006 24.6077 18.2494C24.3566 17.9982 24.0159 17.8571 23.6607 17.8571C23.3055 17.8571 22.9649 17.9982 22.7137 18.2494C22.4625 18.5006 22.3214 18.8412 22.3214 19.1964V21.875C22.3214 21.9934 22.2744 22.107 22.1907 22.1907C22.107 22.2744 21.9934 22.3214 21.875 22.3214H19.1964C18.8412 22.3214 18.5006 22.4625 18.2494 22.7137C17.9982 22.9649 17.8571 23.3055 17.8571 23.6607C17.8571 24.0159 17.9982 24.3566 18.2494 24.6077C18.5006 24.8589 18.8412 25 19.1964 25H21.875C22.7038 25 23.4987 24.6708 24.0847 24.0847C24.6708 23.4987 25 22.7038 25 21.875V19.1964ZM1.33929 17.8571C1.69449 17.8571 2.03514 17.9982 2.2863 18.2494C2.53747 18.5006 2.67857 18.8412 2.67857 19.1964V21.875C2.67857 21.9934 2.72561 22.107 2.80933 22.1907C2.89305 22.2744 3.0066 22.3214 3.125 22.3214H5.80357C6.15877 22.3214 6.49942 22.4625 6.75059 22.7137C7.00175 22.9649 7.14286 23.3055 7.14286 23.6607C7.14286 24.0159 7.00175 24.3566 6.75059 24.6077C6.49942 24.8589 6.15877 25 5.80357 25H3.125C2.2962 25 1.50134 24.6708 0.915291 24.0847C0.32924 23.4987 0 22.7038 0 21.875L0 19.1964C0 18.8412 0.141103 18.5006 0.392268 18.2494C0.643432 17.9982 0.984085 17.8571 1.33929 17.8571ZM19.1964 0C18.8412 0 18.5006 0.141103 18.2494 0.392268C17.9982 0.643432 17.8571 0.984085 17.8571 1.33929C17.8571 1.69449 17.9982 2.03514 18.2494 2.2863C18.5006 2.53747 18.8412 2.67857 19.1964 2.67857H21.875C21.9934 2.67857 22.107 2.72561 22.1907 2.80933C22.2744 2.89305 22.3214 3.0066 22.3214 3.125V5.80357C22.3214 6.15877 22.4625 6.49942 22.7137 6.75059C22.9649 7.00175 23.3055 7.14286 23.6607 7.14286C24.0159 7.14286 24.3566 7.00175 24.6077 6.75059C24.8589 6.49942 25 6.15877 25 5.80357V3.125C25 2.2962 24.6708 1.50134 24.0847 0.915291C23.4987 0.32924 22.7038 0 21.875 0H19.1964ZM12.5 13.8857C10.889 13.8849 9.31636 14.377 7.99323 15.296C6.6701 16.215 5.65987 17.5169 5.09821 19.0268C4.89821 19.5607 5.325 20.0893 5.89464 20.0893H19.1018C19.6732 20.0893 20.0982 19.5607 19.9 19.0268C19.3383 17.5169 18.3281 16.215 17.005 15.296C15.6819 14.377 14.111 13.8849 12.5 13.8857ZM16.4429 7.96607C16.4429 9.01297 16.027 10.017 15.2867 10.7572C14.5464 11.4975 13.5424 11.9134 12.4955 11.9134C11.4486 11.9134 10.4446 11.4975 9.70436 10.7572C8.96409 10.017 8.54821 9.01297 8.54821 7.96607C8.54821 6.91918 8.96409 5.91516 9.70436 5.17489C10.4446 4.43463 11.4486 4.01875 12.4955 4.01875C13.5424 4.01875 14.5464 4.43463 15.2867 5.17489C16.027 5.91516 16.4429 6.91918 16.4429 7.96607Z" fill="black" fill-opacity="0.25"/>
</svg>
